# xmcd
#
# Track frame offsets: 
#        150
#        20598
#        42379
#        64116
#        91165
#        107897
#        137054
#        147734
#        169541
#        190382
#        210578
#
# Disc length: 3131 seconds
#
# Revision: 0
# Processed by: cddbd v1.5.2PL0 Copyright (c) Steve Scherf et al.
# Submitted via: ExactAudioCopy v1.3
#
DISCID=a10c390b
DTITLE=Billy Branch and The Sons Of Blues - Blues Shock
DYEAR=2014
DGENRE=Modern Electric Blues
TTITLE0=Sons of Blues
TTITLE1=Crazy Mixed Up World
TTITLE2=Blues Shock
TTITLE3=Dog House
TTITLE4=Function At The Junction
TTITLE5=Going To See Miss Gerri One More Time
TTITLE6=Back Alley Cat
TTITLE7=Boom Boom
TTITLE8=Slow Moe
TTITLE9=Baby Let Me Butter Your Corn
TTITLE10=Song For My Mother
EXTD=
EXTT0=
EXTT1=
EXTT2=
EXTT3=
EXTT4=
EXTT5=
EXTT6=
EXTT7=
EXTT8=
EXTT9=
EXTT10=
PLAYORDER=
